solid ASCII
  facet normal 8.944272e-01 4.472136e-01 -0.000000e+00
    outer loop
      vertex   -1.400000e+00 1.000000e+00 1.000000e+00
      vertex   -1.400000e+00 1.000000e+00 4.000000e+00
      vertex   -9.000001e-01 8.940697e-08 1.000000e+00
    endloop
  endfacet
  facet normal 8.944272e-01 4.472136e-01 -0.000000e+00
    outer loop
      vertex   -9.000001e-01 8.940697e-08 1.000000e+00
      vertex   -1.400000e+00 1.000000e+00 4.000000e+00
      vertex   -9.000001e-01 8.940697e-08 4.000000e+00
    endloop
  endfacet
  facet normal 8.944272e-01 4.472136e-01 0.000000e+00
    outer loop
      vertex   -9.000001e-01 8.940697e-08 -9.999999e-01
      vertex   -9.000001e-01 8.940697e-08 -4.000000e+00
      vertex   -1.400000e+00 1.000000e+00 -9.999999e-01
    endloop
  endfacet
  facet normal 8.944272e-01 4.472136e-01 0.000000e+00
    outer loop
      vertex   -1.400000e+00 1.000000e+00 -9.999999e-01
      vertex   -9.000001e-01 8.940697e-08 -4.000000e+00
      vertex   -1.400000e+00 1.000000e+00 -4.000000e+00
    endloop
  endfacet
  facet normal 0.000000e+00 1.000000e+00 0.000000e+00
    outer loop
      vertex   -1.400000e+00 1.000000e+00 4.000000e+00
      vertex   -1.400000e+00 1.000000e+00 1.000000e+00
      vertex   -2.000000e+00 1.000000e+00 4.000000e+00
    endloop
  endfacet
  facet normal 0.000000e+00 1.000000e+00 0.000000e+00
    outer loop
      vertex   -2.000000e+00 1.000000e+00 4.000000e+00
      vertex   -1.400000e+00 1.000000e+00 1.000000e+00
      vertex   -1.400000e+00 1.000000e+00 -9.999999e-01
    endloop
  endfacet
  facet normal 0.000000e+00 1.000000e+00 0.000000e+00
    outer loop
      vertex   -2.000000e+00 1.000000e+00 4.000000e+00
      vertex   -1.400000e+00 1.000000e+00 -9.999999e-01
      vertex   -2.000000e+00 1.000000e+00 -4.000000e+00
    endloop
  endfacet
  facet normal 0.000000e+00 1.000000e+00 0.000000e+00
    outer loop
      vertex   -2.000000e+00 1.000000e+00 -4.000000e+00
      vertex   -1.400000e+00 1.000000e+00 -9.999999e-01
      vertex   -1.400000e+00 1.000000e+00 -4.000000e+00
    endloop
  endfacet
  facet normal 0.000000e+00 1.000000e+00 0.000000e+00
    outer loop
      vertex   1.400000e+00 1.000000e+00 1.000000e+00
      vertex   9.000000e-01 1.000000e+00 8.940697e-08
      vertex   -1.400000e+00 1.000000e+00 1.000000e+00
    endloop
  endfacet
  facet normal 0.000000e+00 1.000000e+00 0.000000e+00
    outer loop
      vertex   -1.400000e+00 1.000000e+00 1.000000e+00
      vertex   9.000000e-01 1.000000e+00 8.940697e-08
      vertex   -1.400000e+00 1.000000e+00 -9.999999e-01
    endloop
  endfacet
  facet normal 0.000000e+00 1.000000e+00 0.000000e+00
    outer loop
      vertex   9.000000e-01 1.000000e+00 8.940697e-08
      vertex   1.400000e+00 1.000000e+00 -9.999999e-01
      vertex   -1.400000e+00 1.000000e+00 -9.999999e-01
    endloop
  endfacet
  facet normal -8.944272e-01 0.000000e+00 -4.472136e-01
    outer loop
      vertex   1.400000e+00 1.000000e+00 -9.999999e-01
      vertex   9.000000e-01 1.000000e+00 8.940697e-08
      vertex   1.400000e+00 4.000000e+00 -9.999999e-01
    endloop
  endfacet
  facet normal -8.944272e-01 0.000000e+00 -4.472136e-01
    outer loop
      vertex   1.400000e+00 4.000000e+00 -9.999999e-01
      vertex   9.000000e-01 1.000000e+00 8.940697e-08
      vertex   9.000000e-01 4.000000e+00 8.940697e-08
    endloop
  endfacet
  facet normal -8.944272e-01 0.000000e+00 4.472136e-01
    outer loop
      vertex   9.000000e-01 1.000000e+00 8.940697e-08
      vertex   1.400000e+00 1.000000e+00 1.000000e+00
      vertex   9.000000e-01 4.000000e+00 8.940697e-08
    endloop
  endfacet
  facet normal -8.944272e-01 0.000000e+00 4.472136e-01
    outer loop
      vertex   9.000000e-01 4.000000e+00 8.940697e-08
      vertex   1.400000e+00 1.000000e+00 1.000000e+00
      vertex   1.400000e+00 4.000000e+00 1.000000e+00
    endloop
  endfacet
  facet normal 7.071068e-01 0.000000e+00 -7.071068e-01
    outer loop
      vertex   1.000000e+00 4.000000e+00 -6.000000e+00
      vertex   1.000000e+00 5.000000e+00 -6.000000e+00
      vertex   2.000000e+00 4.000000e+00 -5.000000e+00
    endloop
  endfacet
  facet normal 7.071068e-01 0.000000e+00 -7.071068e-01
    outer loop
      vertex   2.000000e+00 4.000000e+00 -5.000000e+00
      vertex   1.000000e+00 5.000000e+00 -6.000000e+00
      vertex   2.000000e+00 6.000000e+00 -5.000000e+00
    endloop
  endfacet
  facet normal 0.000000e+00 7.071068e-01 -7.071068e-01
    outer loop
      vertex   2.000000e+00 6.000000e+00 -5.000000e+00
      vertex   1.000000e+00 5.000000e+00 -6.000000e+00
      vertex   5.000000e-01 6.000000e+00 -5.000000e+00
    endloop
  endfacet
  facet normal -2.898632e-16 7.071068e-01 -7.071068e-01
    outer loop
      vertex   5.000000e-01 6.000000e+00 -5.000000e+00
      vertex   1.000000e+00 5.000000e+00 -6.000000e+00
      vertex   -1.166667e+00 5.000000e+00 -6.000000e+00
    endloop
  endfacet
  facet normal -5.144958e-01 8.574929e-01 0.000000e+00
    outer loop
      vertex   5.000000e-01 6.000000e+00 -4.000000e+00
      vertex   5.000000e-01 6.000000e+00 -5.000000e+00
      vertex   -2.000000e+00 4.500000e+00 -4.000000e+00
    endloop
  endfacet
  facet normal -5.144957e-01 8.574929e-01 9.813227e-08
    outer loop
      vertex   -2.000000e+00 4.500000e+00 -4.000000e+00
      vertex   5.000000e-01 6.000000e+00 -5.000000e+00
      vertex   -1.166667e+00 5.000000e+00 -6.000000e+00
    endloop
  endfacet
  facet normal -5.144959e-01 8.574928e-01 0.000000e+00
    outer loop
      vertex   -2.000000e+00 4.500000e+00 -4.000000e+00
      vertex   -1.166667e+00 5.000000e+00 -6.000000e+00
      vertex   -2.000000e+00 4.500000e+00 -6.000000e+00
    endloop
  endfacet
  facet normal 0.000000e+00 1.000000e+00 0.000000e+00
    outer loop
      vertex   5.000000e-01 6.000000e+00 -5.000000e+00
      vertex   5.000000e-01 6.000000e+00 -4.000000e+00
      vertex   2.000000e+00 6.000000e+00 -5.000000e+00
    endloop
  endfacet
  facet normal 0.000000e+00 1.000000e+00 0.000000e+00
    outer loop
      vertex   2.000000e+00 6.000000e+00 -5.000000e+00
      vertex   5.000000e-01 6.000000e+00 -4.000000e+00
      vertex   5.000000e-01 6.000000e+00 4.000000e+00
    endloop
  endfacet
  facet normal 0.000000e+00 1.000000e+00 -0.000000e+00
    outer loop
      vertex   2.000000e+00 6.000000e+00 -5.000000e+00
      vertex   5.000000e-01 6.000000e+00 4.000000e+00
      vertex   2.000000e+00 6.000000e+00 5.000000e+00
    endloop
  endfacet
  facet normal 0.000000e+00 1.000000e+00 0.000000e+00
    outer loop
      vertex   2.000000e+00 6.000000e+00 5.000000e+00
      vertex   5.000000e-01 6.000000e+00 4.000000e+00
      vertex   5.000000e-01 6.000000e+00 5.000000e+00
    endloop
  endfacet
  facet normal -0.000000e+00 -1.000000e+00 0.000000e+00
    outer loop
      vertex   2.000000e+00 4.000000e+00 -5.000000e+00
      vertex   1.400000e+00 4.000000e+00 -9.999999e-01
      vertex   1.000000e+00 4.000000e+00 -6.000000e+00
    endloop
  endfacet
  facet normal 0.000000e+00 -1.000000e+00 0.000000e+00
    outer loop
      vertex   1.000000e+00 4.000000e+00 -6.000000e+00
      vertex   1.400000e+00 4.000000e+00 -9.999999e-01
      vertex   5.000000e-01 4.000000e+00 -4.000000e+00
    endloop
  endfacet
  facet normal 0.000000e+00 -1.000000e+00 0.000000e+00
    outer loop
      vertex   1.000000e+00 4.000000e+00 -6.000000e+00
      vertex   5.000000e-01 4.000000e+00 -4.000000e+00
      vertex   -5.000000e-01 4.000000e+00 -6.000000e+00
    endloop
  endfacet
  facet normal 0.000000e+00 -1.000000e+00 0.000000e+00
    outer loop
      vertex   -5.000000e-01 4.000000e+00 -6.000000e+00
      vertex   5.000000e-01 4.000000e+00 -4.000000e+00
      vertex   -5.000000e-01 4.000000e+00 -4.000000e+00
    endloop
  endfacet
  facet normal 0.000000e+00 -1.000000e+00 0.000000e+00
    outer loop
      vertex   2.000000e+00 4.000000e+00 -5.000000e+00
      vertex   2.000000e+00 4.000000e+00 -9.999999e-01
      vertex   1.400000e+00 4.000000e+00 -9.999999e-01
    endloop
  endfacet
  facet normal -0.000000e+00 -1.000000e+00 0.000000e+00
    outer loop
      vertex   1.400000e+00 4.000000e+00 -9.999999e-01
      vertex   9.000000e-01 4.000000e+00 8.940697e-08
      vertex   5.000000e-01 4.000000e+00 -4.000000e+00
    endloop
  endfacet
  facet normal 0.000000e+00 -1.000000e+00 0.000000e+00
    outer loop
      vertex   5.000000e-01 4.000000e+00 -4.000000e+00
      vertex   9.000000e-01 4.000000e+00 8.940697e-08
      vertex   5.000000e-01 4.000000e+00 4.000000e+00
    endloop
  endfacet
  facet normal 0.000000e+00 -1.000000e+00 0.000000e+00
    outer loop
      vertex   5.000000e-01 4.000000e+00 4.000000e+00
      vertex   9.000000e-01 4.000000e+00 8.940697e-08
      vertex   1.400000e+00 4.000000e+00 1.000000e+00
    endloop
  endfacet
  facet normal 0.000000e+00 -1.000000e+00 0.000000e+00
    outer loop
      vertex   5.000000e-01 4.000000e+00 4.000000e+00
      vertex   1.400000e+00 4.000000e+00 1.000000e+00
      vertex   1.000000e+00 4.000000e+00 6.000000e+00
    endloop
  endfacet
  facet normal 0.000000e+00 -1.000000e+00 0.000000e+00
    outer loop
      vertex   1.000000e+00 4.000000e+00 6.000000e+00
      vertex   1.400000e+00 4.000000e+00 1.000000e+00
      vertex   2.000000e+00 4.000000e+00 5.000000e+00
    endloop
  endfacet
  facet normal 0.000000e+00 -1.000000e+00 0.000000e+00
    outer loop
      vertex   2.000000e+00 4.000000e+00 5.000000e+00
      vertex   1.400000e+00 4.000000e+00 1.000000e+00
      vertex   2.000000e+00 4.000000e+00 1.000000e+00
    endloop
  endfacet
  facet normal -0.000000e+00 -1.000000e+00 0.000000e+00
    outer loop
      vertex   1.000000e+00 4.000000e+00 6.000000e+00
      vertex   -5.000000e-01 4.000000e+00 6.000000e+00
      vertex   5.000000e-01 4.000000e+00 4.000000e+00
    endloop
  endfacet
  facet normal 0.000000e+00 -1.000000e+00 0.000000e+00
    outer loop
      vertex   5.000000e-01 4.000000e+00 4.000000e+00
      vertex   -5.000000e-01 4.000000e+00 6.000000e+00
      vertex   -5.000000e-01 4.000000e+00 4.000000e+00
    endloop
  endfacet
  facet normal 7.071068e-01 0.000000e+00 7.071068e-01
    outer loop
      vertex   2.000000e+00 6.000000e+00 5.000000e+00
      vertex   1.000000e+00 5.000000e+00 6.000000e+00
      vertex   2.000000e+00 4.000000e+00 5.000000e+00
    endloop
  endfacet
  facet normal 7.071068e-01 0.000000e+00 7.071068e-01
    outer loop
      vertex   2.000000e+00 4.000000e+00 5.000000e+00
      vertex   1.000000e+00 5.000000e+00 6.000000e+00
      vertex   1.000000e+00 4.000000e+00 6.000000e+00
    endloop
  endfacet
  facet normal -0.000000e+00 7.071068e-01 7.071068e-01
    outer loop
      vertex   -1.166667e+00 5.000000e+00 6.000000e+00
      vertex   1.000000e+00 5.000000e+00 6.000000e+00
      vertex   5.000000e-01 6.000000e+00 5.000000e+00
    endloop
  endfacet
  facet normal -0.000000e+00 7.071068e-01 7.071068e-01
    outer loop
      vertex   5.000000e-01 6.000000e+00 5.000000e+00
      vertex   1.000000e+00 5.000000e+00 6.000000e+00
      vertex   2.000000e+00 6.000000e+00 5.000000e+00
    endloop
  endfacet
  facet normal -5.144959e-01 8.574928e-01 0.000000e+00
    outer loop
      vertex   -2.000000e+00 4.500000e+00 6.000000e+00
      vertex   -1.166667e+00 5.000000e+00 6.000000e+00
      vertex   -2.000000e+00 4.500000e+00 4.000000e+00
    endloop
  endfacet
  facet normal -5.144957e-01 8.574929e-01 -9.813227e-08
    outer loop
      vertex   -2.000000e+00 4.500000e+00 4.000000e+00
      vertex   -1.166667e+00 5.000000e+00 6.000000e+00
      vertex   5.000000e-01 6.000000e+00 5.000000e+00
    endloop
  endfacet
  facet normal -5.144958e-01 8.574929e-01 0.000000e+00
    outer loop
      vertex   -2.000000e+00 4.500000e+00 4.000000e+00
      vertex   5.000000e-01 6.000000e+00 5.000000e+00
      vertex   5.000000e-01 6.000000e+00 4.000000e+00
    endloop
  endfacet
  facet normal -1.000000e+00 0.000000e+00 0.000000e+00
    outer loop
      vertex   5.000000e-01 4.000000e+00 -4.000000e+00
      vertex   5.000000e-01 4.000000e+00 4.000000e+00
      vertex   5.000000e-01 6.000000e+00 -4.000000e+00
    endloop
  endfacet
  facet normal -1.000000e+00 0.000000e+00 0.000000e+00
    outer loop
      vertex   5.000000e-01 6.000000e+00 -4.000000e+00
      vertex   5.000000e-01 4.000000e+00 4.000000e+00
      vertex   5.000000e-01 6.000000e+00 4.000000e+00
    endloop
  endfacet
  facet normal 8.944272e-01 -4.472136e-01 0.000000e+00
    outer loop
      vertex   -9.000001e-01 8.940697e-08 1.000000e+00
      vertex   -9.000001e-01 8.940697e-08 4.000000e+00
      vertex   -1.400000e+00 -9.999999e-01 1.000000e+00
    endloop
  endfacet
  facet normal 8.944272e-01 -4.472136e-01 0.000000e+00
    outer loop
      vertex   -1.400000e+00 -9.999999e-01 1.000000e+00
      vertex   -9.000001e-01 8.940697e-08 4.000000e+00
      vertex   -1.400000e+00 -9.999999e-01 4.000000e+00
    endloop
  endfacet
  facet normal 8.944272e-01 -4.472136e-01 0.000000e+00
    outer loop
      vertex   -1.400000e+00 -9.999999e-01 -9.999999e-01
      vertex   -1.400000e+00 -9.999999e-01 -4.000000e+00
      vertex   -9.000001e-01 8.940697e-08 -9.999999e-01
    endloop
  endfacet
  facet normal 8.944272e-01 -4.472136e-01 0.000000e+00
    outer loop
      vertex   -9.000001e-01 8.940697e-08 -9.999999e-01
      vertex   -1.400000e+00 -9.999999e-01 -4.000000e+00
      vertex   -9.000001e-01 8.940697e-08 -4.000000e+00
    endloop
  endfacet
  facet normal -0.000000e+00 -1.000000e+00 -0.000000e+00
    outer loop
      vertex   -1.400000e+00 -9.999999e-01 4.000000e+00
      vertex   -2.000000e+00 -9.999999e-01 4.000000e+00
      vertex   -1.400000e+00 -9.999999e-01 1.000000e+00
    endloop
  endfacet
  facet normal -0.000000e+00 -1.000000e+00 0.000000e+00
    outer loop
      vertex   -1.400000e+00 -9.999999e-01 1.000000e+00
      vertex   -2.000000e+00 -9.999999e-01 4.000000e+00
      vertex   -2.000000e+00 -9.999999e-01 -4.000000e+00
    endloop
  endfacet
  facet normal 0.000000e+00 -1.000000e+00 -0.000000e+00
    outer loop
      vertex   -1.400000e+00 -9.999999e-01 1.000000e+00
      vertex   -2.000000e+00 -9.999999e-01 -4.000000e+00
      vertex   -1.400000e+00 -9.999999e-01 -9.999999e-01
    endloop
  endfacet
  facet normal 0.000000e+00 -1.000000e+00 -0.000000e+00
    outer loop
      vertex   -1.400000e+00 -9.999999e-01 -9.999999e-01
      vertex   -2.000000e+00 -9.999999e-01 -4.000000e+00
      vertex   -1.400000e+00 -9.999999e-01 -4.000000e+00
    endloop
  endfacet
  facet normal 0.000000e+00 -1.000000e+00 0.000000e+00
    outer loop
      vertex   1.400000e+00 -9.999999e-01 -9.999999e-01
      vertex   9.000000e-01 -9.999999e-01 8.940697e-08
      vertex   -1.400000e+00 -9.999999e-01 -9.999999e-01
    endloop
  endfacet
  facet normal 0.000000e+00 -1.000000e+00 0.000000e+00
    outer loop
      vertex   -1.400000e+00 -9.999999e-01 -9.999999e-01
      vertex   9.000000e-01 -9.999999e-01 8.940697e-08
      vertex   -1.400000e+00 -9.999999e-01 1.000000e+00
    endloop
  endfacet
  facet normal 0.000000e+00 -1.000000e+00 0.000000e+00
    outer loop
      vertex   9.000000e-01 -9.999999e-01 8.940697e-08
      vertex   1.400000e+00 -9.999999e-01 1.000000e+00
      vertex   -1.400000e+00 -9.999999e-01 1.000000e+00
    endloop
  endfacet
  facet normal -8.944272e-01 -0.000000e+00 -4.472136e-01
    outer loop
      vertex   9.000000e-01 -9.999999e-01 8.940697e-08
      vertex   1.400000e+00 -9.999999e-01 -9.999999e-01
      vertex   9.000000e-01 -4.000000e+00 8.940697e-08
    endloop
  endfacet
  facet normal -8.944272e-01 0.000000e+00 -4.472136e-01
    outer loop
      vertex   9.000000e-01 -4.000000e+00 8.940697e-08
      vertex   1.400000e+00 -9.999999e-01 -9.999999e-01
      vertex   1.400000e+00 -4.000000e+00 -9.999999e-01
    endloop
  endfacet
  facet normal 0.000000e+00 0.000000e+00 -1.000000e+00
    outer loop
      vertex   1.400000e+00 -4.000000e+00 -9.999999e-01
      vertex   1.400000e+00 -9.999999e-01 -9.999999e-01
      vertex   2.000000e+00 -4.000000e+00 -9.999999e-01
    endloop
  endfacet
  facet normal 0.000000e+00 0.000000e+00 -1.000000e+00
    outer loop
      vertex   2.000000e+00 -4.000000e+00 -9.999999e-01
      vertex   1.400000e+00 -9.999999e-01 -9.999999e-01
      vertex   1.400000e+00 1.000000e+00 -9.999999e-01
    endloop
  endfacet
  facet normal 0.000000e+00 0.000000e+00 -1.000000e+00
    outer loop
      vertex   2.000000e+00 -4.000000e+00 -9.999999e-01
      vertex   1.400000e+00 1.000000e+00 -9.999999e-01
      vertex   2.000000e+00 4.000000e+00 -9.999999e-01
    endloop
  endfacet
  facet normal -0.000000e+00 0.000000e+00 -1.000000e+00
    outer loop
      vertex   2.000000e+00 4.000000e+00 -9.999999e-01
      vertex   1.400000e+00 1.000000e+00 -9.999999e-01
      vertex   1.400000e+00 4.000000e+00 -9.999999e-01
    endloop
  endfacet
  facet normal 0.000000e+00 0.000000e+00 -1.000000e+00
    outer loop
      vertex   -1.400000e+00 -9.999999e-01 -9.999999e-01
      vertex   -9.000001e-01 8.940697e-08 -9.999999e-01
      vertex   1.400000e+00 -9.999999e-01 -9.999999e-01
    endloop
  endfacet
  facet normal 0.000000e+00 0.000000e+00 -1.000000e+00
    outer loop
      vertex   1.400000e+00 -9.999999e-01 -9.999999e-01
      vertex   -9.000001e-01 8.940697e-08 -9.999999e-01
      vertex   1.400000e+00 1.000000e+00 -9.999999e-01
    endloop
  endfacet
  facet normal 0.000000e+00 0.000000e+00 -1.000000e+00
    outer loop
      vertex   -9.000001e-01 8.940697e-08 -9.999999e-01
      vertex   -1.400000e+00 1.000000e+00 -9.999999e-01
      vertex   1.400000e+00 1.000000e+00 -9.999999e-01
    endloop
  endfacet
  facet normal -8.944272e-01 0.000000e+00 4.472136e-01
    outer loop
      vertex   1.400000e+00 -9.999999e-01 1.000000e+00
      vertex   9.000000e-01 -9.999999e-01 8.940697e-08
      vertex   1.400000e+00 -4.000000e+00 1.000000e+00
    endloop
  endfacet
  facet normal -8.944272e-01 0.000000e+00 4.472136e-01
    outer loop
      vertex   1.400000e+00 -4.000000e+00 1.000000e+00
      vertex   9.000000e-01 -9.999999e-01 8.940697e-08
      vertex   9.000000e-01 -4.000000e+00 8.940697e-08
    endloop
  endfacet
  facet normal 7.071068e-01 0.000000e+00 -7.071068e-01
    outer loop
      vertex   1.000000e+00 -4.000000e+00 -6.000000e+00
      vertex   2.000000e+00 -4.000000e+00 -5.000000e+00
      vertex   1.000000e+00 -5.000000e+00 -6.000000e+00
    endloop
  endfacet
  facet normal 7.071068e-01 0.000000e+00 -7.071068e-01
    outer loop
      vertex   1.000000e+00 -5.000000e+00 -6.000000e+00
      vertex   2.000000e+00 -4.000000e+00 -5.000000e+00
      vertex   2.000000e+00 -6.000000e+00 -5.000000e+00
    endloop
  endfacet
  facet normal -0.000000e+00 -7.071068e-01 -7.071068e-01
    outer loop
      vertex   2.000000e+00 -6.000000e+00 -5.000000e+00
      vertex   5.000000e-01 -6.000000e+00 -5.000000e+00
      vertex   1.000000e+00 -5.000000e+00 -6.000000e+00
    endloop
  endfacet
  facet normal -2.898632e-16 -7.071068e-01 -7.071068e-01
    outer loop
      vertex   1.000000e+00 -5.000000e+00 -6.000000e+00
      vertex   5.000000e-01 -6.000000e+00 -5.000000e+00
      vertex   -1.166667e+00 -5.000000e+00 -6.000000e+00
    endloop
  endfacet
  facet normal -5.144958e-01 -8.574929e-01 -0.000000e+00
    outer loop
      vertex   5.000000e-01 -6.000000e+00 -4.000000e+00
      vertex   -2.000000e+00 -4.500000e+00 -4.000000e+00
      vertex   5.000000e-01 -6.000000e+00 -5.000000e+00
    endloop
  endfacet
  facet normal -5.144957e-01 -8.574929e-01 9.813227e-08
    outer loop
      vertex   5.000000e-01 -6.000000e+00 -5.000000e+00
      vertex   -2.000000e+00 -4.500000e+00 -4.000000e+00
      vertex   -1.166667e+00 -5.000000e+00 -6.000000e+00
    endloop
  endfacet
  facet normal -5.144959e-01 -8.574928e-01 0.000000e+00
    outer loop
      vertex   -1.166667e+00 -5.000000e+00 -6.000000e+00
      vertex   -2.000000e+00 -4.500000e+00 -4.000000e+00
      vertex   -2.000000e+00 -4.500000e+00 -6.000000e+00
    endloop
  endfacet
  facet normal 0.000000e+00 0.000000e+00 1.000000e+00
    outer loop
      vertex   5.000000e-01 -6.000000e+00 -4.000000e+00
      vertex   -5.000000e-01 -4.000000e+00 -4.000000e+00
      vertex   -2.000000e+00 -4.500000e+00 -4.000000e+00
    endloop
  endfacet
  facet normal 0.000000e+00 0.000000e+00 1.000000e+00
    outer loop
      vertex   -2.000000e+00 -4.500000e+00 -4.000000e+00
      vertex   -5.000000e-01 -4.000000e+00 -4.000000e+00
      vertex   -1.400000e+00 -9.999999e-01 -4.000000e+00
    endloop
  endfacet
  facet normal 0.000000e+00 0.000000e+00 1.000000e+00
    outer loop
      vertex   -2.000000e+00 -4.500000e+00 -4.000000e+00
      vertex   -1.400000e+00 -9.999999e-01 -4.000000e+00
      vertex   -2.000000e+00 -9.999999e-01 -4.000000e+00
    endloop
  endfacet
  facet normal 0.000000e+00 -0.000000e+00 1.000000e+00
    outer loop
      vertex   5.000000e-01 -6.000000e+00 -4.000000e+00
      vertex   5.000000e-01 -4.000000e+00 -4.000000e+00
      vertex   -5.000000e-01 -4.000000e+00 -4.000000e+00
    endloop
  endfacet
  facet normal -0.000000e+00 0.000000e+00 1.000000e+00
    outer loop
      vertex   -1.400000e+00 -9.999999e-01 -4.000000e+00
      vertex   -5.000000e-01 -4.000000e+00 -4.000000e+00
      vertex   -9.000001e-01 8.940697e-08 -4.000000e+00
    endloop
  endfacet
  facet normal -0.000000e+00 0.000000e+00 1.000000e+00
    outer loop
      vertex   -9.000001e-01 8.940697e-08 -4.000000e+00
      vertex   -5.000000e-01 -4.000000e+00 -4.000000e+00
      vertex   -5.000000e-01 4.000000e+00 -4.000000e+00
    endloop
  endfacet
  facet normal 0.000000e+00 -0.000000e+00 1.000000e+00
    outer loop
      vertex   -9.000001e-01 8.940697e-08 -4.000000e+00
      vertex   -5.000000e-01 4.000000e+00 -4.000000e+00
      vertex   -1.400000e+00 1.000000e+00 -4.000000e+00
    endloop
  endfacet
  facet normal 0.000000e+00 -0.000000e+00 1.000000e+00
    outer loop
      vertex   -1.400000e+00 1.000000e+00 -4.000000e+00
      vertex   -5.000000e-01 4.000000e+00 -4.000000e+00
      vertex   -2.000000e+00 4.500000e+00 -4.000000e+00
    endloop
  endfacet
  facet normal 0.000000e+00 0.000000e+00 1.000000e+00
    outer loop
      vertex   -1.400000e+00 1.000000e+00 -4.000000e+00
      vertex   -2.000000e+00 4.500000e+00 -4.000000e+00
      vertex   -2.000000e+00 1.000000e+00 -4.000000e+00
    endloop
  endfacet
  facet normal 0.000000e+00 -0.000000e+00 1.000000e+00
    outer loop
      vertex   5.000000e-01 4.000000e+00 -4.000000e+00
      vertex   5.000000e-01 6.000000e+00 -4.000000e+00
      vertex   -5.000000e-01 4.000000e+00 -4.000000e+00
    endloop
  endfacet
  facet normal 0.000000e+00 -0.000000e+00 1.000000e+00
    outer loop
      vertex   -5.000000e-01 4.000000e+00 -4.000000e+00
      vertex   5.000000e-01 6.000000e+00 -4.000000e+00
      vertex   -2.000000e+00 4.500000e+00 -4.000000e+00
    endloop
  endfacet
  facet normal 0.000000e+00 -1.000000e+00 0.000000e+00
    outer loop
      vertex   5.000000e-01 -6.000000e+00 -5.000000e+00
      vertex   2.000000e+00 -6.000000e+00 -5.000000e+00
      vertex   5.000000e-01 -6.000000e+00 -4.000000e+00
    endloop
  endfacet
  facet normal 0.000000e+00 -1.000000e+00 0.000000e+00
    outer loop
      vertex   5.000000e-01 -6.000000e+00 -4.000000e+00
      vertex   2.000000e+00 -6.000000e+00 -5.000000e+00
      vertex   2.000000e+00 -6.000000e+00 5.000000e+00
    endloop
  endfacet
  facet normal 0.000000e+00 -1.000000e+00 0.000000e+00
    outer loop
      vertex   5.000000e-01 -6.000000e+00 -4.000000e+00
      vertex   2.000000e+00 -6.000000e+00 5.000000e+00
      vertex   5.000000e-01 -6.000000e+00 4.000000e+00
    endloop
  endfacet
  facet normal 0.000000e+00 -1.000000e+00 0.000000e+00
    outer loop
      vertex   5.000000e-01 -6.000000e+00 4.000000e+00
      vertex   2.000000e+00 -6.000000e+00 5.000000e+00
      vertex   5.000000e-01 -6.000000e+00 5.000000e+00
    endloop
  endfacet
  facet normal 1.000000e+00 0.000000e+00 -1.110223e-16
    outer loop
      vertex   2.000000e+00 -4.000000e+00 -5.000000e+00
      vertex   2.000000e+00 -4.000000e+00 -9.999999e-01
      vertex   2.000000e+00 -6.000000e+00 -5.000000e+00
    endloop
  endfacet
  facet normal 1.000000e+00 6.661338e-16 -4.440892e-16
    outer loop
      vertex   2.000000e+00 -6.000000e+00 -5.000000e+00
      vertex   2.000000e+00 -4.000000e+00 -9.999999e-01
      vertex   2.000000e+00 -4.000000e+00 1.000000e+00
    endloop
  endfacet
  facet normal 1.000000e+00 -1.332268e-16 -1.776357e-16
    outer loop
      vertex   2.000000e+00 -6.000000e+00 -5.000000e+00
      vertex   2.000000e+00 -4.000000e+00 1.000000e+00
      vertex   2.000000e+00 -6.000000e+00 5.000000e+00
    endloop
  endfacet
  facet normal 1.000000e+00 0.000000e+00 -1.110223e-16
    outer loop
      vertex   2.000000e+00 -6.000000e+00 5.000000e+00
      vertex   2.000000e+00 -4.000000e+00 1.000000e+00
      vertex   2.000000e+00 -4.000000e+00 5.000000e+00
    endloop
  endfacet
  facet normal 1.000000e+00 0.000000e+00 -4.440892e-16
    outer loop
      vertex   2.000000e+00 -4.000000e+00 1.000000e+00
      vertex   2.000000e+00 -4.000000e+00 -9.999999e-01
      vertex   2.000000e+00 4.000000e+00 1.000000e+00
    endloop
  endfacet
  facet normal 1.000000e+00 0.000000e+00 -4.440892e-16
    outer loop
      vertex   2.000000e+00 4.000000e+00 1.000000e+00
      vertex   2.000000e+00 -4.000000e+00 -9.999999e-01
      vertex   2.000000e+00 4.000000e+00 -9.999999e-01
    endloop
  endfacet
  facet normal 1.000000e+00 6.661338e-16 -4.440892e-16
    outer loop
      vertex   2.000000e+00 4.000000e+00 1.000000e+00
      vertex   2.000000e+00 4.000000e+00 -9.999999e-01
      vertex   2.000000e+00 6.000000e+00 5.000000e+00
    endloop
  endfacet
  facet normal 1.000000e+00 -1.332268e-16 -1.776357e-16
    outer loop
      vertex   2.000000e+00 6.000000e+00 5.000000e+00
      vertex   2.000000e+00 4.000000e+00 -9.999999e-01
      vertex   2.000000e+00 6.000000e+00 -5.000000e+00
    endloop
  endfacet
  facet normal 1.000000e+00 0.000000e+00 -1.110223e-16
    outer loop
      vertex   2.000000e+00 6.000000e+00 -5.000000e+00
      vertex   2.000000e+00 4.000000e+00 -9.999999e-01
      vertex   2.000000e+00 4.000000e+00 -5.000000e+00
    endloop
  endfacet
  facet normal 1.000000e+00 0.000000e+00 -1.110223e-16
    outer loop
      vertex   2.000000e+00 6.000000e+00 5.000000e+00
      vertex   2.000000e+00 4.000000e+00 5.000000e+00
      vertex   2.000000e+00 4.000000e+00 1.000000e+00
    endloop
  endfacet
  facet normal 0.000000e+00 1.000000e+00 0.000000e+00
    outer loop
      vertex   2.000000e+00 -4.000000e+00 -9.999999e-01
      vertex   2.000000e+00 -4.000000e+00 -5.000000e+00
      vertex   1.400000e+00 -4.000000e+00 -9.999999e-01
    endloop
  endfacet
  facet normal 0.000000e+00 1.000000e+00 0.000000e+00
    outer loop
      vertex   1.400000e+00 -4.000000e+00 -9.999999e-01
      vertex   2.000000e+00 -4.000000e+00 -5.000000e+00
      vertex   1.000000e+00 -4.000000e+00 -6.000000e+00
    endloop
  endfacet
  facet normal 0.000000e+00 1.000000e+00 0.000000e+00
    outer loop
      vertex   1.400000e+00 -4.000000e+00 -9.999999e-01
      vertex   1.000000e+00 -4.000000e+00 -6.000000e+00
      vertex   5.000000e-01 -4.000000e+00 -4.000000e+00
    endloop
  endfacet
  facet normal 0.000000e+00 1.000000e+00 0.000000e+00
    outer loop
      vertex   5.000000e-01 -4.000000e+00 -4.000000e+00
      vertex   1.000000e+00 -4.000000e+00 -6.000000e+00
      vertex   -5.000000e-01 -4.000000e+00 -6.000000e+00
    endloop
  endfacet
  facet normal 0.000000e+00 1.000000e+00 0.000000e+00
    outer loop
      vertex   5.000000e-01 -4.000000e+00 -4.000000e+00
      vertex   -5.000000e-01 -4.000000e+00 -6.000000e+00
      vertex   -5.000000e-01 -4.000000e+00 -4.000000e+00
    endloop
  endfacet
  facet normal 0.000000e+00 1.000000e+00 0.000000e+00
    outer loop
      vertex   1.400000e+00 -4.000000e+00 -9.999999e-01
      vertex   5.000000e-01 -4.000000e+00 -4.000000e+00
      vertex   9.000000e-01 -4.000000e+00 8.940697e-08
    endloop
  endfacet
  facet normal 0.000000e+00 1.000000e+00 0.000000e+00
    outer loop
      vertex   9.000000e-01 -4.000000e+00 8.940697e-08
      vertex   5.000000e-01 -4.000000e+00 -4.000000e+00
      vertex   5.000000e-01 -4.000000e+00 4.000000e+00
    endloop
  endfacet
  facet normal 0.000000e+00 1.000000e+00 -0.000000e+00
    outer loop
      vertex   9.000000e-01 -4.000000e+00 8.940697e-08
      vertex   5.000000e-01 -4.000000e+00 4.000000e+00
      vertex   1.400000e+00 -4.000000e+00 1.000000e+00
    endloop
  endfacet
  facet normal 0.000000e+00 1.000000e+00 0.000000e+00
    outer loop
      vertex   1.400000e+00 -4.000000e+00 1.000000e+00
      vertex   5.000000e-01 -4.000000e+00 4.000000e+00
      vertex   1.000000e+00 -4.000000e+00 6.000000e+00
    endloop
  endfacet
  facet normal 0.000000e+00 1.000000e+00 -0.000000e+00
    outer loop
      vertex   1.400000e+00 -4.000000e+00 1.000000e+00
      vertex   1.000000e+00 -4.000000e+00 6.000000e+00
      vertex   2.000000e+00 -4.000000e+00 5.000000e+00
    endloop
  endfacet
  facet normal 0.000000e+00 1.000000e+00 0.000000e+00
    outer loop
      vertex   -5.000000e-01 -4.000000e+00 4.000000e+00
      vertex   -5.000000e-01 -4.000000e+00 6.000000e+00
      vertex   5.000000e-01 -4.000000e+00 4.000000e+00
    endloop
  endfacet
  facet normal 0.000000e+00 1.000000e+00 -0.000000e+00
    outer loop
      vertex   5.000000e-01 -4.000000e+00 4.000000e+00
      vertex   -5.000000e-01 -4.000000e+00 6.000000e+00
      vertex   1.000000e+00 -4.000000e+00 6.000000e+00
    endloop
  endfacet
  facet normal 0.000000e+00 1.000000e+00 0.000000e+00
    outer loop
      vertex   2.000000e+00 -4.000000e+00 5.000000e+00
      vertex   2.000000e+00 -4.000000e+00 1.000000e+00
      vertex   1.400000e+00 -4.000000e+00 1.000000e+00
    endloop
  endfacet
  facet normal 7.071068e-01 -0.000000e+00 7.071068e-01
    outer loop
      vertex   2.000000e+00 -6.000000e+00 5.000000e+00
      vertex   2.000000e+00 -4.000000e+00 5.000000e+00
      vertex   1.000000e+00 -5.000000e+00 6.000000e+00
    endloop
  endfacet
  facet normal 7.071068e-01 -0.000000e+00 7.071068e-01
    outer loop
      vertex   1.000000e+00 -5.000000e+00 6.000000e+00
      vertex   2.000000e+00 -4.000000e+00 5.000000e+00
      vertex   1.000000e+00 -4.000000e+00 6.000000e+00
    endloop
  endfacet
  facet normal 0.000000e+00 -7.071068e-01 7.071068e-01
    outer loop
      vertex   -1.166667e+00 -5.000000e+00 6.000000e+00
      vertex   5.000000e-01 -6.000000e+00 5.000000e+00
      vertex   1.000000e+00 -5.000000e+00 6.000000e+00
    endloop
  endfacet
  facet normal 0.000000e+00 -7.071068e-01 7.071068e-01
    outer loop
      vertex   1.000000e+00 -5.000000e+00 6.000000e+00
      vertex   5.000000e-01 -6.000000e+00 5.000000e+00
      vertex   2.000000e+00 -6.000000e+00 5.000000e+00
    endloop
  endfacet
  facet normal -5.144959e-01 -8.574928e-01 -0.000000e+00
    outer loop
      vertex   -2.000000e+00 -4.500000e+00 6.000000e+00
      vertex   -2.000000e+00 -4.500000e+00 4.000000e+00
      vertex   -1.166667e+00 -5.000000e+00 6.000000e+00
    endloop
  endfacet
  facet normal -5.144957e-01 -8.574929e-01 -9.813227e-08
    outer loop
      vertex   -1.166667e+00 -5.000000e+00 6.000000e+00
      vertex   -2.000000e+00 -4.500000e+00 4.000000e+00
      vertex   5.000000e-01 -6.000000e+00 5.000000e+00
    endloop
  endfacet
  facet normal -5.144958e-01 -8.574929e-01 -0.000000e+00
    outer loop
      vertex   5.000000e-01 -6.000000e+00 5.000000e+00
      vertex   -2.000000e+00 -4.500000e+00 4.000000e+00
      vertex   5.000000e-01 -6.000000e+00 4.000000e+00
    endloop
  endfacet
  facet normal -0.000000e+00 -0.000000e+00 -1.000000e+00
    outer loop
      vertex   5.000000e-01 -4.000000e+00 4.000000e+00
      vertex   5.000000e-01 -6.000000e+00 4.000000e+00
      vertex   -5.000000e-01 -4.000000e+00 4.000000e+00
    endloop
  endfacet
  facet normal 0.000000e+00 -0.000000e+00 -1.000000e+00
    outer loop
      vertex   -5.000000e-01 -4.000000e+00 4.000000e+00
      vertex   5.000000e-01 -6.000000e+00 4.000000e+00
      vertex   -2.000000e+00 -4.500000e+00 4.000000e+00
    endloop
  endfacet
  facet normal -0.000000e+00 0.000000e+00 -1.000000e+00
    outer loop
      vertex   -5.000000e-01 -4.000000e+00 4.000000e+00
      vertex   -2.000000e+00 -4.500000e+00 4.000000e+00
      vertex   -1.400000e+00 -9.999999e-01 4.000000e+00
    endloop
  endfacet
  facet normal -0.000000e+00 0.000000e+00 -1.000000e+00
    outer loop
      vertex   -1.400000e+00 -9.999999e-01 4.000000e+00
      vertex   -2.000000e+00 -4.500000e+00 4.000000e+00
      vertex   -2.000000e+00 -9.999999e-01 4.000000e+00
    endloop
  endfacet
  facet normal 0.000000e+00 0.000000e+00 -1.000000e+00
    outer loop
      vertex   -1.400000e+00 -9.999999e-01 4.000000e+00
      vertex   -9.000001e-01 8.940697e-08 4.000000e+00
      vertex   -5.000000e-01 -4.000000e+00 4.000000e+00
    endloop
  endfacet
  facet normal 0.000000e+00 0.000000e+00 -1.000000e+00
    outer loop
      vertex   -5.000000e-01 -4.000000e+00 4.000000e+00
      vertex   -9.000001e-01 8.940697e-08 4.000000e+00
      vertex   -5.000000e-01 4.000000e+00 4.000000e+00
    endloop
  endfacet
  facet normal 0.000000e+00 0.000000e+00 -1.000000e+00
    outer loop
      vertex   -5.000000e-01 4.000000e+00 4.000000e+00
      vertex   -9.000001e-01 8.940697e-08 4.000000e+00
      vertex   -1.400000e+00 1.000000e+00 4.000000e+00
    endloop
  endfacet
  facet normal -0.000000e+00 0.000000e+00 -1.000000e+00
    outer loop
      vertex   -5.000000e-01 4.000000e+00 4.000000e+00
      vertex   -1.400000e+00 1.000000e+00 4.000000e+00
      vertex   -2.000000e+00 4.500000e+00 4.000000e+00
    endloop
  endfacet
  facet normal 0.000000e+00 0.000000e+00 -1.000000e+00
    outer loop
      vertex   -2.000000e+00 4.500000e+00 4.000000e+00
      vertex   -1.400000e+00 1.000000e+00 4.000000e+00
      vertex   -2.000000e+00 1.000000e+00 4.000000e+00
    endloop
  endfacet
  facet normal 0.000000e+00 0.000000e+00 -1.000000e+00
    outer loop
      vertex   -2.000000e+00 4.500000e+00 4.000000e+00
      vertex   5.000000e-01 6.000000e+00 4.000000e+00
      vertex   -5.000000e-01 4.000000e+00 4.000000e+00
    endloop
  endfacet
  facet normal 0.000000e+00 0.000000e+00 -1.000000e+00
    outer loop
      vertex   -5.000000e-01 4.000000e+00 4.000000e+00
      vertex   5.000000e-01 6.000000e+00 4.000000e+00
      vertex   5.000000e-01 4.000000e+00 4.000000e+00
    endloop
  endfacet
  facet normal 0.000000e+00 0.000000e+00 1.000000e+00
    outer loop
      vertex   1.400000e+00 -4.000000e+00 1.000000e+00
      vertex   2.000000e+00 -4.000000e+00 1.000000e+00
      vertex   1.400000e+00 -9.999999e-01 1.000000e+00
    endloop
  endfacet
  facet normal -0.000000e+00 0.000000e+00 1.000000e+00
    outer loop
      vertex   1.400000e+00 -9.999999e-01 1.000000e+00
      vertex   2.000000e+00 -4.000000e+00 1.000000e+00
      vertex   2.000000e+00 4.000000e+00 1.000000e+00
    endloop
  endfacet
  facet normal 0.000000e+00 0.000000e+00 1.000000e+00
    outer loop
      vertex   1.400000e+00 -9.999999e-01 1.000000e+00
      vertex   2.000000e+00 4.000000e+00 1.000000e+00
      vertex   1.400000e+00 1.000000e+00 1.000000e+00
    endloop
  endfacet
  facet normal 0.000000e+00 0.000000e+00 1.000000e+00
    outer loop
      vertex   1.400000e+00 1.000000e+00 1.000000e+00
      vertex   2.000000e+00 4.000000e+00 1.000000e+00
      vertex   1.400000e+00 4.000000e+00 1.000000e+00
    endloop
  endfacet
  facet normal -0.000000e+00 0.000000e+00 1.000000e+00
    outer loop
      vertex   -1.400000e+00 1.000000e+00 1.000000e+00
      vertex   -9.000001e-01 8.940697e-08 1.000000e+00
      vertex   1.400000e+00 1.000000e+00 1.000000e+00
    endloop
  endfacet
  facet normal 0.000000e+00 0.000000e+00 1.000000e+00
    outer loop
      vertex   1.400000e+00 1.000000e+00 1.000000e+00
      vertex   -9.000001e-01 8.940697e-08 1.000000e+00
      vertex   1.400000e+00 -9.999999e-01 1.000000e+00
    endloop
  endfacet
  facet normal 0.000000e+00 0.000000e+00 1.000000e+00
    outer loop
      vertex   -9.000001e-01 8.940697e-08 1.000000e+00
      vertex   -1.400000e+00 -9.999999e-01 1.000000e+00
      vertex   1.400000e+00 -9.999999e-01 1.000000e+00
    endloop
  endfacet
  facet normal 1.000000e+00 -0.000000e+00 0.000000e+00
    outer loop
      vertex   -5.000000e-01 -4.000000e+00 -4.000000e+00
      vertex   -5.000000e-01 -4.000000e+00 -6.000000e+00
      vertex   -5.000000e-01 4.000000e+00 -4.000000e+00
    endloop
  endfacet
  facet normal 1.000000e+00 0.000000e+00 0.000000e+00
    outer loop
      vertex   -5.000000e-01 4.000000e+00 -4.000000e+00
      vertex   -5.000000e-01 -4.000000e+00 -6.000000e+00
      vertex   -5.000000e-01 4.000000e+00 -6.000000e+00
    endloop
  endfacet
  facet normal 1.000000e+00 -0.000000e+00 0.000000e+00
    outer loop
      vertex   -5.000000e-01 -4.000000e+00 6.000000e+00
      vertex   -5.000000e-01 -4.000000e+00 4.000000e+00
      vertex   -5.000000e-01 4.000000e+00 6.000000e+00
    endloop
  endfacet
  facet normal 1.000000e+00 0.000000e+00 0.000000e+00
    outer loop
      vertex   -5.000000e-01 4.000000e+00 6.000000e+00
      vertex   -5.000000e-01 -4.000000e+00 4.000000e+00
      vertex   -5.000000e-01 4.000000e+00 4.000000e+00
    endloop
  endfacet
  facet normal 0.000000e+00 0.000000e+00 1.000000e+00
    outer loop
      vertex   1.000000e+00 -4.000000e+00 6.000000e+00
      vertex   -5.000000e-01 -4.000000e+00 6.000000e+00
      vertex   1.000000e+00 -5.000000e+00 6.000000e+00
    endloop
  endfacet
  facet normal 0.000000e+00 0.000000e+00 1.000000e+00
    outer loop
      vertex   1.000000e+00 -5.000000e+00 6.000000e+00
      vertex   -5.000000e-01 -4.000000e+00 6.000000e+00
      vertex   -1.166667e+00 -5.000000e+00 6.000000e+00
    endloop
  endfacet
  facet normal 0.000000e+00 0.000000e+00 1.000000e+00
    outer loop
      vertex   -1.166667e+00 -5.000000e+00 6.000000e+00
      vertex   -5.000000e-01 -4.000000e+00 6.000000e+00
      vertex   -5.000000e-01 4.000000e+00 6.000000e+00
    endloop
  endfacet
  facet normal 0.000000e+00 -0.000000e+00 1.000000e+00
    outer loop
      vertex   -1.166667e+00 -5.000000e+00 6.000000e+00
      vertex   -5.000000e-01 4.000000e+00 6.000000e+00
      vertex   -2.000000e+00 -4.500000e+00 6.000000e+00
    endloop
  endfacet
  facet normal 0.000000e+00 0.000000e+00 1.000000e+00
    outer loop
      vertex   -2.000000e+00 -4.500000e+00 6.000000e+00
      vertex   -5.000000e-01 4.000000e+00 6.000000e+00
      vertex   -1.166667e+00 5.000000e+00 6.000000e+00
    endloop
  endfacet
  facet normal 0.000000e+00 0.000000e+00 1.000000e+00
    outer loop
      vertex   -2.000000e+00 -4.500000e+00 6.000000e+00
      vertex   -1.166667e+00 5.000000e+00 6.000000e+00
      vertex   -2.000000e+00 4.500000e+00 6.000000e+00
    endloop
  endfacet
  facet normal 0.000000e+00 -0.000000e+00 1.000000e+00
    outer loop
      vertex   1.000000e+00 4.000000e+00 6.000000e+00
      vertex   1.000000e+00 5.000000e+00 6.000000e+00
      vertex   -5.000000e-01 4.000000e+00 6.000000e+00
    endloop
  endfacet
  facet normal 0.000000e+00 -0.000000e+00 1.000000e+00
    outer loop
      vertex   -5.000000e-01 4.000000e+00 6.000000e+00
      vertex   1.000000e+00 5.000000e+00 6.000000e+00
      vertex   -1.166667e+00 5.000000e+00 6.000000e+00
    endloop
  endfacet
  facet normal -1.000000e+00 0.000000e+00 0.000000e+00
    outer loop
      vertex   -2.000000e+00 -4.500000e+00 -4.000000e+00
      vertex   -2.000000e+00 -9.999999e-01 -4.000000e+00
      vertex   -2.000000e+00 -4.500000e+00 -6.000000e+00
    endloop
  endfacet
  facet normal -1.000000e+00 0.000000e+00 0.000000e+00
    outer loop
      vertex   -2.000000e+00 -4.500000e+00 -6.000000e+00
      vertex   -2.000000e+00 -9.999999e-01 -4.000000e+00
      vertex   -2.000000e+00 1.000000e+00 -4.000000e+00
    endloop
  endfacet
  facet normal -1.000000e+00 0.000000e+00 0.000000e+00
    outer loop
      vertex   -2.000000e+00 -4.500000e+00 -6.000000e+00
      vertex   -2.000000e+00 1.000000e+00 -4.000000e+00
      vertex   -2.000000e+00 4.500000e+00 -6.000000e+00
    endloop
  endfacet
  facet normal -1.000000e+00 0.000000e+00 0.000000e+00
    outer loop
      vertex   -2.000000e+00 4.500000e+00 -6.000000e+00
      vertex   -2.000000e+00 1.000000e+00 -4.000000e+00
      vertex   -2.000000e+00 4.500000e+00 -4.000000e+00
    endloop
  endfacet
  facet normal -1.000000e+00 0.000000e+00 0.000000e+00
    outer loop
      vertex   -2.000000e+00 -9.999999e-01 -4.000000e+00
      vertex   -2.000000e+00 -9.999999e-01 4.000000e+00
      vertex   -2.000000e+00 1.000000e+00 -4.000000e+00
    endloop
  endfacet
  facet normal -1.000000e+00 0.000000e+00 0.000000e+00
    outer loop
      vertex   -2.000000e+00 1.000000e+00 -4.000000e+00
      vertex   -2.000000e+00 -9.999999e-01 4.000000e+00
      vertex   -2.000000e+00 1.000000e+00 4.000000e+00
    endloop
  endfacet
  facet normal -1.000000e+00 0.000000e+00 0.000000e+00
    outer loop
      vertex   -2.000000e+00 1.000000e+00 4.000000e+00
      vertex   -2.000000e+00 -9.999999e-01 4.000000e+00
      vertex   -2.000000e+00 -4.500000e+00 6.000000e+00
    endloop
  endfacet
  facet normal -1.000000e+00 0.000000e+00 0.000000e+00
    outer loop
      vertex   -2.000000e+00 1.000000e+00 4.000000e+00
      vertex   -2.000000e+00 -4.500000e+00 6.000000e+00
      vertex   -2.000000e+00 4.500000e+00 6.000000e+00
    endloop
  endfacet
  facet normal -1.000000e+00 0.000000e+00 0.000000e+00
    outer loop
      vertex   -2.000000e+00 -9.999999e-01 4.000000e+00
      vertex   -2.000000e+00 -4.500000e+00 4.000000e+00
      vertex   -2.000000e+00 -4.500000e+00 6.000000e+00
    endloop
  endfacet
  facet normal -1.000000e+00 0.000000e+00 -0.000000e+00
    outer loop
      vertex   -2.000000e+00 4.500000e+00 6.000000e+00
      vertex   -2.000000e+00 4.500000e+00 4.000000e+00
      vertex   -2.000000e+00 1.000000e+00 4.000000e+00
    endloop
  endfacet
  facet normal 0.000000e+00 0.000000e+00 -1.000000e+00
    outer loop
      vertex   -2.000000e+00 -4.500000e+00 -6.000000e+00
      vertex   -2.000000e+00 4.500000e+00 -6.000000e+00
      vertex   -1.166667e+00 -5.000000e+00 -6.000000e+00
    endloop
  endfacet
  facet normal 0.000000e+00 0.000000e+00 -1.000000e+00
    outer loop
      vertex   -1.166667e+00 -5.000000e+00 -6.000000e+00
      vertex   -2.000000e+00 4.500000e+00 -6.000000e+00
      vertex   -5.000000e-01 -4.000000e+00 -6.000000e+00
    endloop
  endfacet
  facet normal -4.099284e-16 2.732858e-16 -1.000000e+00
    outer loop
      vertex   -1.166667e+00 -5.000000e+00 -6.000000e+00
      vertex   -5.000000e-01 -4.000000e+00 -6.000000e+00
      vertex   1.000000e+00 -5.000000e+00 -6.000000e+00
    endloop
  endfacet
  facet normal -5.921189e-16 0.000000e+00 -1.000000e+00
    outer loop
      vertex   1.000000e+00 -5.000000e+00 -6.000000e+00
      vertex   -5.000000e-01 -4.000000e+00 -6.000000e+00
      vertex   1.000000e+00 -4.000000e+00 -6.000000e+00
    endloop
  endfacet
  facet normal 0.000000e+00 0.000000e+00 -1.000000e+00
    outer loop
      vertex   -2.000000e+00 4.500000e+00 -6.000000e+00
      vertex   -1.166667e+00 5.000000e+00 -6.000000e+00
      vertex   -5.000000e-01 -4.000000e+00 -6.000000e+00
    endloop
  endfacet
  facet normal 0.000000e+00 0.000000e+00 -1.000000e+00
    outer loop
      vertex   -5.000000e-01 -4.000000e+00 -6.000000e+00
      vertex   -1.166667e+00 5.000000e+00 -6.000000e+00
      vertex   -5.000000e-01 4.000000e+00 -6.000000e+00
    endloop
  endfacet
  facet normal -4.099284e-16 -2.732858e-16 -1.000000e+00
    outer loop
      vertex   -5.000000e-01 4.000000e+00 -6.000000e+00
      vertex   -1.166667e+00 5.000000e+00 -6.000000e+00
      vertex   1.000000e+00 5.000000e+00 -6.000000e+00
    endloop
  endfacet
  facet normal -5.921189e-16 0.000000e+00 -1.000000e+00
    outer loop
      vertex   -5.000000e-01 4.000000e+00 -6.000000e+00
      vertex   1.000000e+00 5.000000e+00 -6.000000e+00
      vertex   1.000000e+00 4.000000e+00 -6.000000e+00
    endloop
  endfacet
  facet normal -1.000000e+00 -0.000000e+00 -0.000000e+00
    outer loop
      vertex   5.000000e-01 -4.000000e+00 4.000000e+00
      vertex   5.000000e-01 -4.000000e+00 -4.000000e+00
      vertex   5.000000e-01 -6.000000e+00 4.000000e+00
    endloop
  endfacet
  facet normal -1.000000e+00 0.000000e+00 0.000000e+00
    outer loop
      vertex   5.000000e-01 -6.000000e+00 4.000000e+00
      vertex   5.000000e-01 -4.000000e+00 -4.000000e+00
      vertex   5.000000e-01 -6.000000e+00 -4.000000e+00
    endloop
  endfacet
endsolid
